<svg viewBox="0 0 32 32" width="1em" height="1em">
  <title>Webmention</title>
  <g fill-rule="evenodd" clip-rule="evenodd">
    <path d="M16 7c-5.96 0-11 3.2-11 7 0 .28.22.5.5.5s.5-.22.5-.5c0-3.2 4.67-6 10-6 .28 0 .5-.22.5-.5S16.28 7 16 7z"/>
    <path d="M16 2C7.16 2 0 7.37 0 14c0 4.13 2.78 7.77 7 9.93V24c0 1.8-1.34 3.72-1.93 4.74-.04.1-.07.23-.07.35 0 .5.4.9.9.9.1 0 .27-.05.26 0 3.13-.56 6.07-3.4 6.75-4.26 1 .15 2.07.23 3.1.23 8.87 0 16-5.38 16-12S24.87 2 16 2zm0 22c-.92 0-1.86-.07-2.8-.2l-.3-.03c-.58 0-1.15.27-1.53.73-.43.52-1.65 1.7-3.1 2.54.4-.9.7-1.9.73-2.93v-.14c0-.76-.4-1.44-1.08-1.78C4.22 20.28 2 17.2 2 14 2 8.5 8.28 4 16 4s14 4.5 14 10-6.28 10-14 10z"/>
  </g>
</svg>
