<svg style="display: none;" aria-hidden="true"><defs/><symbol id="symbol-anchor" viewBox="0 0 24 24" width="1em" height="1em" aria-label="Anchor" role="img"><circle cx="12" cy="5" r="3"/><line x1="12" y1="22" x2="12" y2="8"/><path d="M5 12H2a10 10 0 0 0 20 0h-3"/></symbol><symbol id="symbol-date" viewBox="0 0 24 24" width="1em" height="1em" aria-label="Date" role="img"><rect x="3" y="4" width="18" height="18" rx="2" ry="2"/><line x1="16" y1="2" x2="16" y2="6"/><line x1="8" y1="2" x2="8" y2="6"/><line x1="3" y1="10" x2="21" y2="10"/></symbol><symbol id="symbol-info" viewBox="0 0 24 24" width="1em" height="1em" aria-label="Info" role="img"><circle cx="12" cy="12" r="10"/><line x1="12" y1="16" x2="12" y2="12"/><line x1="12" y1="8" x2="12.01" y2="8"/></symbol><symbol id="symbol-link" viewBox="0 0 24 24" width="1em" height="1em" aria-label="Link" role="img"><path d="M10 13a5 5 0 0 0 7.54.54l3-3a5 5 0 0 0-7.07-7.07l-1.72 1.71"/><path d="M14 11a5 5 0 0 0-7.54-.54l-3 3a5 5 0 0 0 7.07 7.07l1.71-1.71"/></symbol><symbol id="symbol-location" viewBox="0 0 24 24" width="1em" height="1em" aria-label="Location" role="img"><path d="M21 10c0 7-9 13-9 13s-9-6-9-13a9 9 0 0 1 18 0z"/><circle cx="12" cy="10" r="3"/></symbol><symbol id="symbol-comments" viewBox="0 0 24 24" width="1em" height="1em" aria-label="Webmention" role="img"><path d="M21 11.5a8.38 8.38 0 0 1-.9 3.8 8.5 8.5 0 0 1-7.6 4.7 8.38 8.38 0 0 1-3.8-.9L3 21l1.9-5.7a8.38 8.38 0 0 1-.9-3.8 8.5 8.5 0 0 1 4.7-7.6 8.38 8.38 0 0 1 3.8-.9h.5a8.48 8.48 0 0 1 8 8v.5z"/></symbol><symbol id="symbol-feeds" viewBox="0 0 24 24" width="1em" height="1em" aria-label="Feeds" role="img"><path d="M4 11a9 9 0 0 1 9 9"/><path d="M4 4a16 16 0 0 1 16 16"/><circle cx="5" cy="19" r="1"/></symbol><symbol id="symbol-search" viewBox="0 0 24 24" width="1em" height="1em" aria-label="Search" role="img"><circle cx="11" cy="11" r="8"/><line x1="21" y1="21" x2="16.65" y2="16.65"/></symbol><symbol id="symbol-tags" viewBox="0 0 24 24" width="1em" height="1em" aria-label="Tag" role="img"><path d="M20.59 13.41l-7.17 7.17a2 2 0 0 1-2.83 0L2 12V2h10l8.59 8.59a2 2 0 0 1 0 2.82z"/><line x1="7" y1="7" x2="7.01" y2="7"/></symbol><symbol id="symbol-twitter" viewBox="0 0 24 24" width="1em" height="1em" aria-label="Twitter" role="img"><path d="M23 3a10.9 10.9 0 0 1-3.14 1.53 4.48 4.48 0 0 0-7.86 3v1A10.66 10.66 0 0 1 3 4s-4 9 5 13a11.64 11.64 0 0 1-7 2c9 5 20 0 20-11.5a4.5 4.5 0 0 0-.08-.83A7.72 7.72 0 0 0 23 3z"/></symbol><symbol id="symbol-online" viewBox="0 0 24 24" width="1em" height="1em" aria-label="Online" role="img"><path d="M5 12.55a11 11 0 0 1 14.08 0"/><path d="M1.42 9a16 16 0 0 1 21.16 0"/><path d="M8.53 16.11a6 6 0 0 1 6.95 0"/><line x1="12" y1="20" x2="12.01" y2="20"/></symbol><symbol id="symbol-offline" viewBox="0 0 24 24" width="1em" height="1em" aria-label="Offline" role="img"><line x1="1" y1="1" x2="23" y2="23"/><path d="M16.72 11.06A10.94 10.94 0 0 1 19 12.55"/><path d="M5 12.55a10.94 10.94 0 0 1 5.17-2.39"/><path d="M10.71 5.05A16 16 0 0 1 22.58 9"/><path d="M1.42 9a15.91 15.91 0 0 1 4.7-2.88"/><path d="M8.53 16.11a6 6 0 0 1 6.95 0"/><line x1="12" y1="20" x2="12.01" y2="20"/></symbol><symbol id="symbol-mastodon" viewBox="0 0 24 24" role="img" width="1em" height="1em" aria-label="Mastodon"><title>Mastodon icon</title><path d="M23.193 7.879c0-5.206-3.411-6.732-3.411-6.732C18.062.357 15.108.025 12.041 0h-.076c-3.068.025-6.02.357-7.74 1.147 0 0-3.411 1.526-3.411 6.732 0 1.192-.023 2.618.015 4.129.124 5.092.934 10.109 5.641 11.355 2.17.574 4.034.695 5.535.612 2.722-.15 4.25-.972 4.25-.972l-.09-1.975s-1.945.613-4.129.539c-2.165-.074-4.449-.233-4.799-2.891a5.499 5.499 0 0 1-.048-.745s2.125.52 4.817.643c1.646.075 3.19-.097 4.758-.283 3.007-.359 5.625-2.212 5.954-3.905.517-2.665.475-6.507.475-6.507zm-4.024 6.709h-2.497V8.469c0-1.29-.543-1.944-1.628-1.944-1.2 0-1.802.776-1.802 2.312v3.349h-2.483v-3.35c0-1.536-.602-2.312-1.802-2.312-1.085 0-1.628.655-1.628 1.944v6.119H4.832V8.284c0-1.289.328-2.313.987-3.07.68-.758 1.569-1.146 2.674-1.146 1.278 0 2.246.491 2.886 1.474L12 6.585l.622-1.043c.64-.983 1.608-1.474 2.886-1.474 1.104 0 1.994.388 2.674 1.146.658.757.986 1.781.986 3.07v6.304z"/></symbol></svg>