<svg style="width:0;height:0;position:absolute" aria-hidden="true"><defs><linearGradient id="symbol-mastodon_a" x1="37.1" x2="37.1" y1="0" y2="79" gradientUnits="userSpaceOnUse"><stop stop-color="#6364FF"/><stop offset="1" stop-color="#563ACC"/></linearGradient></defs><symbol id="symbol-anchor" viewBox="0 0 24 24" aria-label="Anchor" role="img"><circle cx="12" cy="5" r="3"/><line x1="12" y1="22" x2="12" y2="8"/><path d="M5 12H2a10 10 0 0 0 20 0h-3"/></symbol><symbol id="symbol-date" viewBox="0 0 24 24" aria-label="Date" role="img"><rect x="3" y="4" width="18" height="18" rx="2" ry="2"/><line x1="16" y1="2" x2="16" y2="6"/><line x1="8" y1="2" x2="8" y2="6"/><line x1="3" y1="10" x2="21" y2="10"/></symbol><symbol id="symbol-home" viewBox="0 0 24 24" aria-label="Home" role="img"><path d="M3 9l9-7 9 7v11a2 2 0 0 1-2 2H5a2 2 0 0 1-2-2z"/><polyline points="9 22 9 12 15 12 15 22"/></symbol><symbol id="symbol-info" viewBox="0 0 24 24" aria-label="Info" role="img"><circle cx="12" cy="12" r="10"/><line x1="12" y1="16" x2="12" y2="12"/><line x1="12" y1="8" x2="12.01" y2="8"/></symbol><symbol id="symbol-link" viewBox="0 0 24 24" aria-label="Link" role="img"><path d="M10 13a5 5 0 0 0 7.54.54l3-3a5 5 0 0 0-7.07-7.07l-1.72 1.71"/><path d="M14 11a5 5 0 0 0-7.54-.54l-3 3a5 5 0 0 0 7.07 7.07l1.71-1.71"/></symbol><symbol id="symbol-location" viewBox="0 0 24 24" aria-label="Location" role="img"><path d="M21 10c0 7-9 13-9 13s-9-6-9-13a9 9 0 0 1 18 0z"/><circle cx="12" cy="10" r="3"/></symbol><symbol id="symbol-reactions" viewBox="0 0 24 24" aria-label="Reactions" role="img"><path d="M21 11.5a8.38 8.38 0 0 1-.9 3.8 8.5 8.5 0 0 1-7.6 4.7 8.38 8.38 0 0 1-3.8-.9L3 21l1.9-5.7a8.38 8.38 0 0 1-.9-3.8 8.5 8.5 0 0 1 4.7-7.6 8.38 8.38 0 0 1 3.8-.9h.5a8.48 8.48 0 0 1 8 8v.5z"/></symbol><symbol id="symbol-search" viewBox="0 0 24 24" aria-label="Search" role="img"><circle cx="11" cy="11" r="8"/><line x1="21" y1="21" x2="16.65" y2="16.65"/></symbol><symbol id="symbol-tags" viewBox="0 0 24 24" aria-label="Tag" role="img"><path d="M20.59 13.41l-7.17 7.17a2 2 0 0 1-2.83 0L2 12V2h10l8.59 8.59a2 2 0 0 1 0 2.82z"/><line x1="7" y1="7" x2="7.01" y2="7"/></symbol><symbol id="symbol-twitter" viewBox="0 0 24 24" aria-label="Twitter" role="img"><path d="M23 3a10.9 10.9 0 0 1-3.14 1.53 4.48 4.48 0 0 0-7.86 3v1A10.66 10.66 0 0 1 3 4s-4 9 5 13a11.64 11.64 0 0 1-7 2c9 5 20 0 20-11.5a4.5 4.5 0 0 0-.08-.83A7.72 7.72 0 0 0 23 3z"/></symbol><symbol id="symbol-author" viewBox="0 0 24 24" aria-label="Author" role="img"><path d="M20 21v-2a4 4 0 0 0-4-4H8a4 4 0 0 0-4 4v2"/><circle cx="12" cy="7" r="4"/></symbol><symbol id="symbol-online" viewBox="0 0 24 24" aria-label="Online" role="img"><path d="M5 12.55a11 11 0 0 1 14.08 0"/><path d="M1.42 9a16 16 0 0 1 21.16 0"/><path d="M8.53 16.11a6 6 0 0 1 6.95 0"/><line x1="12" y1="20" x2="12.01" y2="20"/></symbol><symbol id="symbol-offline" viewBox="0 0 24 24" aria-label="Offline" role="img"><line x1="1" y1="1" x2="23" y2="23"/><path d="M16.72 11.06A10.94 10.94 0 0 1 19 12.55"/><path d="M5 12.55a10.94 10.94 0 0 1 5.17-2.39"/><path d="M10.71 5.05A16 16 0 0 1 22.58 9"/><path d="M1.42 9a15.91 15.91 0 0 1 4.7-2.88"/><path d="M8.53 16.11a6 6 0 0 1 6.95 0"/><line x1="12" y1="20" x2="12.01" y2="20"/></symbol><symbol id="symbol-past" viewBox="0 0 24 24" aria-label="Older" role="img"><path d="M20.9 2.5h-.5v.9c0 1-.7 1.8-1.7 1.8h-1.1a1.8 1.8 90 0 1-1.8-1.8v-1h-2.5v1c0 1-.7 1.8-1.7 1.8h-1.1a1.8 1.8 90 0 1-1.8-1.8v-1h-.4C7 2.5 6 3.5 6 4.7v5.7h1.6V7h13.8v9a.7.7 90 0 1-.7.7H14v1.6h6.7c1.2 0 2.3-1 2.3-2.3V4.7c0-1.2-1-2.2-2.2-2.2z"/><path d="M10.5 4h1c.4 0 .6-.3.6-.6V1.2c0-.3-.2-.6-.6-.6h-1a.6.6 90 0 0-.6.6v2.2c0 .3.3.6.6.6zm7 0h1.1c.4 0 .6-.3.6-.6V1.2c0-.3-.2-.6-.6-.6h-1a.6.6 90 0 0-.6.6v2.2c0 .3.3.6.6.6zM2.8 13.5l-.2.2v-.6c0-.4-.3-.8-.7-.8s-.8.4-.8.8v2.5c0 .5.3.8.8.8h2.5c.4 0 .8-.3.8-.8s-.4-.7-.8-.7h-.6l.2-.2a4.2 4.2 90 1 1-1.2 3.7c0-.4-.5-.7-1-.6-.4 0-.6.5-.6.9a5.8 5.8 90 0 0 9.8 3 5.8 5.8 90 1 0-8.2-8.2z"/></symbol><symbol id="symbol-future" viewBox="0 0 24 24" aria-label="Newer" role="img"><path d="M3.1 2.5h.5v.9c0 1 .7 1.8 1.7 1.8h1.1a1.8 1.8 90 0 0 1.8-1.8v-1h2.5v1c0 1 .7 1.8 1.7 1.8h1.1a1.8 1.8 90 0 0 1.8-1.8v-1h.4C17 2.5 18 3.5 18 4.7v5.7h-1.6V7H2.6v9a.7.7 90 0 0 .7.7H10v1.6H3.3c-1.2 0-2.3-1-2.3-2.3V4.7c0-1.2 1-2.2 2.2-2.2z"/><path d="M13.5 4h-1a.6.6 0 0 1-.6-.6V1.2c0-.3.2-.6.6-.6h1a.6.6 90 0 1 .6.6v2.2c0 .3-.3.6-.6.6zm-7 0H5.3a.6.6 0 0 1-.6-.6V1.2c0-.3.2-.6.6-.6h1a.6.6 90 0 1 .6.6v2.2c0 .3-.3.6-.6.6zm14.8 9.5.2.2v-.6c0-.4.3-.8.7-.8s.8.4.8.8v2.5c0 .5-.3.8-.8.8h-2.5c-.4 0-.8-.3-.8-.8s.4-.7.8-.7h.6l-.2-.2a4.2 4.2 90 1 0 1.2 3.7c0-.4.5-.7 1-.6.4 0 .6.5.6.9a5.8 5.8 90 0 1-9.8 3 5.8 5.8 90 1 1 8.2-8.2z"/></symbol><symbol id="symbol-feed" viewBox="0 0 24 24" aria-label="Feeds" role="img"><rect width="24" height="24" x="0" y="0" fill="#ea7819" rx="3" ry="3"/><path fill="#fff" d="M3.8 12.5a7.7 7.7 90 0 1 7.7 7.7h3.1c0-6-4.8-10.8-10.8-10.8v3.1Zm0-5.6A13.3 13.3 90 0 1 17 20.2h3.2c0-9-7.4-16.4-16.4-16.4v3.1ZM8.2 18a2.2 2.2 90 1 1-4.4 0 2.2 2.2 90 0 1 4.4 0Z"/></symbol><symbol id="symbol-mastodon" viewBox="0 0 24 24" aria-label="Mastodon" role="img"><path fill="url(#symbol-mastodon_a)" d="M23.2 5.3a6.1 6.1 90 0 0-5.3-5c-.4 0-2.1-.3-6-.3-4 0-4.9.2-5.4.3a6.5 6.5 90 0 0-5.4 4.9 14.3 14.3 90 0 0-.3 4c0 1.8 0 3.7.2 5.5.2 1.2.3 2.5.6 3.7.6 2.2 2.8 4.1 5 4.8a13.2 13.2 90 0 0 8 .2l1.7-.7v-1.9a20 20 90 0 1-4.7.5C9 21.3 8.1 20 8 19.5a5.7 5.7 90 0 1-.3-1.5c1.5.4 3 .6 4.6.6h1.1c1.5-.1 3.2-.2 4.7-.5h.1c2.5-.4 4.7-2 5-5.6v-1.7c0-.5.2-3.6 0-5.5Z"/><path fill="#fff" d="M19.4 8.2v6.4h-2.5V8.4c0-1.3-.6-2-1.7-2-1.2 0-1.8.8-1.8 2.4v3.4h-2.6V8.8c0-1.6-.6-2.4-1.8-2.4-1 0-1.6.7-1.6 2v6.2H4.8V8.2c0-1.3.3-2.3 1-3.1.7-.8 1.6-1.2 2.8-1.2 1.2 0 2.2.5 2.9 1.5l.6 1 .7-1c.6-1 1.6-1.5 2.9-1.5 1.1 0 2 .4 2.7 1.2.7.8 1 1.8 1 3.1Z"/></symbol></svg>