<svg xmlns="http://www.w3.org/2000/svg" viewBox="0 0 24 24"><path d="M3.1 2.5h.5v.9c0 1 .7 1.8 1.7 1.8h1.1a1.8 1.8 90 0 0 1.8-1.8v-1h2.5v1c0 1 .7 1.8 1.7 1.8h1.1a1.8 1.8 90 0 0 1.8-1.8v-1h.4C17 2.5 18 3.5 18 4.7v5.7h-1.6V7H2.6v9a.7.7 90 0 0 .7.7H10v1.6H3.3c-1.2 0-2.3-1-2.3-2.3V4.7c0-1.2 1-2.2 2.2-2.2z"/><path d="M13.5 4h-1a.6.6 0 0 1-.6-.6V1.2c0-.3.2-.6.6-.6h1a.6.6 90 0 1 .6.6v2.2c0 .3-.3.6-.6.6zm-7 0H5.3a.6.6 0 0 1-.6-.6V1.2c0-.3.2-.6.6-.6h1a.6.6 90 0 1 .6.6v2.2c0 .3-.3.6-.6.6zm14.8 9.5.2.2v-.6c0-.4.3-.8.7-.8s.8.4.8.8v2.5c0 .5-.3.8-.8.8h-2.5c-.4 0-.8-.3-.8-.8s.4-.7.8-.7h.6l-.2-.2a4.2 4.2 90 1 0 1.2 3.7c0-.4.5-.7 1-.6.4 0 .6.5.6.9a5.8 5.8 90 0 1-9.8 3 5.8 5.8 90 1 1 8.2-8.2z"/></svg>