<svg xmlns="http://www.w3.org/2000/svg" fill="none" viewBox="0 0 24 24"><path fill="url(#a)" d="M23.2 5.3a6.1 6.1 90 0 0-5.3-5c-.4 0-2.1-.3-6-.3-4 0-4.9.2-5.4.3a6.5 6.5 90 0 0-5.4 4.9 14.3 14.3 90 0 0-.3 4c0 1.8 0 3.7.2 5.5.2 1.2.3 2.5.6 3.7.6 2.2 2.8 4.1 5 4.8a13.2 13.2 90 0 0 8 .2l1.7-.7v-1.9a20 20 90 0 1-4.7.5C9 21.3 8.1 20 8 19.5a5.7 5.7 90 0 1-.3-1.5c1.5.4 3 .6 4.6.6h1.1c1.5-.1 3.2-.2 4.7-.5h.1c2.5-.4 4.7-2 5-5.6v-1.7c0-.5.2-3.6 0-5.5Z"/><path fill="#fff" d="M19.4 8.2v6.4h-2.5V8.4c0-1.3-.6-2-1.7-2-1.2 0-1.8.8-1.8 2.4v3.4h-2.6V8.8c0-1.6-.6-2.4-1.8-2.4-1 0-1.6.7-1.6 2v6.2H4.8V8.2c0-1.3.3-2.3 1-3.1.7-.8 1.6-1.2 2.8-1.2 1.2 0 2.2.5 2.9 1.5l.6 1 .7-1c.6-1 1.6-1.5 2.9-1.5 1.1 0 2 .4 2.7 1.2.7.8 1 1.8 1 3.1Z"/><defs><linearGradient id="a" x1="37.1" x2="37.1" y1="0" y2="79" gradientUnits="userSpaceOnUse"><stop stop-color="#6364FF"/><stop offset="1" stop-color="#563ACC"/></linearGradient></defs></svg>