<svg xmlns="http://www.w3.org/2000/svg" viewBox="0 0 24 24"><path d="M20.9 2.5h-.5v.9c0 1-.7 1.8-1.7 1.8h-1.1a1.8 1.8 90 0 1-1.8-1.8v-1h-2.5v1c0 1-.7 1.8-1.7 1.8h-1.1a1.8 1.8 90 0 1-1.8-1.8v-1h-.4C7 2.5 6 3.5 6 4.7v5.7h1.6V7h13.8v9a.7.7 90 0 1-.7.7H14v1.6h6.7c1.2 0 2.3-1 2.3-2.3V4.7c0-1.2-1-2.2-2.2-2.2z"/><path d="M10.5 4h1c.4 0 .6-.3.6-.6V1.2c0-.3-.2-.6-.6-.6h-1a.6.6 90 0 0-.6.6v2.2c0 .3.3.6.6.6zm7 0h1.1c.4 0 .6-.3.6-.6V1.2c0-.3-.2-.6-.6-.6h-1a.6.6 90 0 0-.6.6v2.2c0 .3.3.6.6.6zM2.8 13.5l-.2.2v-.6c0-.4-.3-.8-.7-.8s-.8.4-.8.8v2.5c0 .5.3.8.8.8h2.5c.4 0 .8-.3.8-.8s-.4-.7-.8-.7h-.6l.2-.2a4.2 4.2 90 1 1-1.2 3.7c0-.4-.5-.7-1-.6-.4 0-.6.5-.6.9a5.8 5.8 90 0 0 9.8 3 5.8 5.8 90 1 0-8.2-8.2z"/></svg>