<svg id="icon-instagram" role="img" xmlns="https://www.w3.org/2000/svg" width="1em" height="1em" viewBox="0 0 24 24">
  <title>Instagram</title>
  <path d="M12 2c5.514 0 10 4.486 10 10s-4.486 10-10 10S2 17.514 2 12 6.486 2 12 2zm0-2C5.373 0 0 5.373 0 12s5.373 12 12 12 12-5.373 12-12S18.627 0 12 0zm4.615 6h-9.23C6.62 6 6 6.62 6 7.384v9.23C6 17.38 6.62 18 7.385 18h9.23C17.38 18 18 17.38 18 16.615v-9.23C18 6.62 17.38 6 16.615 6zM12 9.693c1.274 0 2.31 1.032 2.31 2.307s-1.036 2.307-2.31 2.307S9.693 13.274 9.693 12 10.726 9.693 12 9.693zm4.5 6.346c0 .254-.207.46-.46.46H7.96c-.253 0-.46-.207-.46-.46V11h.95c-.046.158-.08.32-.103.486-.023.168-.038.34-.038.514 0 2.04 1.65 3.693 3.69 3.693S15.69 14.04 15.69 12c0-.174-.014-.346-.038-.514-.023-.166-.058-.328-.102-.486h.95v5.04zm0-6.992c0 .255-.207.462-.46.462h-1.09c-.255 0-.46-.208-.46-.462V7.96c0-.254.205-.46.46-.46h1.09c.253 0 .46.207.46.46V9.05z"/>
</svg>