<svg xmlns="http://www.w3.org/2000/svg" fill="currentColor" viewBox="0 0 24 24">
  <path d="M20.52 5.86a.45.45 0 00-.1-.3L15.87.38a.45.45 0 00-.21-.14h-.03a.46.46 0 00-.1-.02H4.4a.92.92 0 00-.92.92V22.8c0 .51.4.93.92.93h15.2c.51 0 .93-.42.93-.93V5.85zM7.94 22.1l-1.17-2.06-.41.5v1.56H5.29v-4.77h1.07v2.1h.02c.1-.18.22-.35.33-.52l1.08-1.58H9.1l-1.58 2.03L9.2 22.1H7.94zm5.8 0l-.07-1.83c-.02-.57-.04-1.26-.04-1.96h-.02c-.15.61-.35 1.3-.53 1.85l-.58 1.86h-.85l-.5-1.84c-.16-.56-.32-1.24-.44-1.87h-.01c-.03.65-.05 1.38-.09 1.98l-.08 1.81h-1l.3-4.77h1.44l.47 1.6c.15.54.3 1.14.4 1.7h.02c.14-.55.3-1.19.46-1.72l.5-1.58h1.42l.26 4.77h-1.06zm4.87 0h-2.98v-4.77h1.08v3.87h1.9v.9zM4.4 15.87V1.14h10.67v4.72c0 .25.21.46.46.46h4.08v9.55H4.4zM20.52 5.86a.45.45 0 00-.1-.3L15.87.38a.45.45 0 00-.21-.14h-.03a.46.46 0 00-.1-.02H4.4a.92.92 0 00-.92.92v21.67c0 .5.4.92.92.92h15.2c.51 0 .93-.42.93-.92V5.85zM7.94 22.1l-1.17-2.06-.41.5v1.56H5.29v-4.77h1.07v2.1h.02l.33-.51 1.08-1.59H9.1l-1.58 2.03L9.2 22.1H7.94zm5.8 0l-.07-1.82c-.02-.58-.04-1.27-.04-1.97h-.02c-.15.61-.35 1.3-.53 1.85l-.58 1.86h-.85l-.5-1.84c-.16-.56-.32-1.24-.44-1.87h-.01c-.03.65-.05 1.38-.09 1.98l-.08 1.81h-1l.3-4.77h1.44l.47 1.6c.15.54.3 1.14.4 1.7h.02c.14-.55.3-1.18.46-1.72l.5-1.58h1.42l.26 4.77h-1.06zm4.87 0h-2.98v-4.77h1.08v3.87h1.9v.9zM4.4 15.87V1.14h10.67v4.72c0 .26.21.46.46.46h4.08v9.55H4.4z"/>
  <path d="M11.6 2.75a5.67 5.67 0 11-.04 11.33 5.7 5.7 0 01-5.6-5.7 5.68 5.68 0 015.65-5.63zm-5 4.13l.05.04.16-.1.33-.29c.67-.55 1.4-.71 2.2-.31.26.13.53.28.79.44 1.11.74 2.2 1.52 3.33 2.23.9.56 1.88.96 2.93 1.17.16.03.23-.01.26-.16.04-.2.07-.4.12-.59.04-.13-.01-.17-.12-.2a3.91 3.91 0 01-1.51-.73 78.3 78.3 0 01-2.4-1.96c-.54-.47-1.06-.96-1.6-1.42a2.83 2.83 0 00-2.53-.57c-.23.05-.5.1-.65.24-.55.5-.99 1.1-1.25 1.8l-.12.4zm9.34 4.5a9.82 9.82 0 00-.06-.07l-.2.05c-.72.2-1.44.36-2.18.33a13.7 13.7 0 01-1.9-.24c-1.09-.2-2.1-.66-3.1-1.08a3.33 3.33 0 00-1.02-.26c-.46-.04-.71.43-.5.82a5.23 5.23 0 002.19 2.15c.07.04.16.06.28.1l-.05-.26c-.13-.5.08-.7.58-.6l.21.05a9.2 9.2 0 003.71.27c.66-.1 1.31-.23 1.73-.84l.3-.42zM10.1 3.4l.01.1.16.02.82.04c1 .06 1.88.42 2.56 1.16.53.57.97 1.22 1.47 1.82.22.26.46.51.72.74.2.17.44.14.6 0 .19-.14.21-.28.12-.56a4.97 4.97 0 00-1.71-2.4 5.2 5.2 0 00-3.99-1.09c-.25.04-.5.12-.76.17z"/>
</svg>
