<svg xmlns="https://www.w3.org/2000/svg" viewBox="0 0 550.801 550.801">
  <path d="M475.095 132c-.03-2.53-.828-5.023-2.562-6.995L366.325 3.695c-.02-.032-.053-.043-.085-.075-.633-.71-1.36-1.292-2.14-1.803-.233-.153-.465-.288-.708-.422-.686-.37-1.392-.67-2.13-.892-.2-.06-.38-.14-.58-.195-.812-.19-1.634-.308-2.478-.308H97.2C85.293 0 75.6 9.695 75.6 21.6v507.6c0 11.914 9.692 21.602 21.6 21.602h356.4c11.918 0 21.6-9.688 21.6-21.6V133.21c0-.406-.063-.812-.105-1.21zM180.15 512.72l-27.383-48.288-9.624 11.792v36.503H118.09V400.882h25.053v49.438h.504c2.49-4.313 5.14-8.29 7.636-12.27l25.384-37.168H207.7l-37.007 47.624 38.995 64.215h-29.54zm136.056 0l-1.655-42.813c-.49-13.438-1-29.7-1-45.964h-.49c-3.48 14.275-8.12 30.206-12.44 43.31l-13.61 43.645h-19.75l-11.94-43.31c-3.65-13.11-7.46-29.048-10.12-43.645h-.33c-.66 15.104-1.16 32.353-1.98 46.296l-2 42.47h-23.4l7.137-111.84h33.69l10.95 37.33c3.48 12.94 6.966 26.88 9.455 39.98h.5c3.154-12.94 6.97-27.72 10.62-40.16l11.945-37.17h33.02l6.135 111.84H316.2v.01zm113.985 0h-69.86V400.883h25.4v90.603h44.47v21.236zM97.2 366.76V21.605h250.204v110.52c0 5.96 4.83 10.8 10.8 10.8H453.6l.01 223.833H97.2z"/>
  <path d="M272.025 64.505c72.452-.276 132.89 59.034 132.748 132.92-.143 72.1-59.542 133.046-133.855 132.48-72.84-.558-131.662-61.605-131.425-133.31.243-72.458 59.983-132.296 132.532-132.09zm-117.563 96.69c.433.31.865.607 1.295.913 1.313-.794 2.734-1.463 3.91-2.418 2.618-2.138 5.07-4.498 7.673-6.657 15.617-12.968 32.616-16.757 51.37-7.317 6.345 3.19 12.697 6.516 18.603 10.437 26.11 17.328 51.67 35.52 78.208 52.165 21 13.18 43.87 22.61 68.46 27.382 3.8.74 5.5-.253 6.23-3.644.99-4.617 1.57-9.337 2.82-13.877.84-2.99-.27-4.1-2.81-4.69-13.07-3.08-25.07-8.88-35.49-17.01-19.07-14.88-37.6-30.48-56.08-46.11-12.78-10.83-24.94-22.41-37.68-33.3-17.304-14.77-37.59-17.5-59.172-13.18-5.33 1.06-11.586 2.25-15.323 5.66-12.85 11.75-23.04 25.71-29.13 42.28-1.123 3.05-1.91 6.23-2.85 9.35zM373.512 266.6c-.49-.53-.975-1.047-1.47-1.577-1.572.396-3.144.757-4.704 1.184-16.675 4.567-33.598 8.564-50.9 7.7-14.938-.752-29.92-2.788-44.623-5.58-25.423-4.83-48.977-15.414-72.792-25.196-7.538-3.09-15.704-5.76-23.738-6.3-10.747-.73-16.648 10.14-11.54 19.42 12.01 21.82 29.048 38.59 51.072 50.23 1.767.93 3.786 1.37 6.692 2.4-.59-2.89-.84-4.52-1.24-6.09-2.92-11.58 1.81-16.43 13.68-13.99 1.65.35 3.31.68 4.95 1.11 28.57 7.38 57.43 10.82 86.87 6.38 15.56-2.35 30.78-5.37 40.52-19.72 2.3-3.39 4.8-6.64 7.2-9.95zM236.932 79.747l.258 2.112c1.236.2 2.462.54 3.7.6 6.414.36 12.83.58 19.24.97 23.456 1.42 44.148 9.85 60.053 27.11 12.355 13.38 22.744 28.58 34.383 42.65 5.136 6.22 10.815 12.14 16.954 17.37 4.614 3.93 10.172 3.37 14.074.19 4.262-3.48 4.947-6.79 2.77-13.24-7.694-22.81-21.152-41.7-40.137-56.26-27.527-21.12-58.725-30.046-93.38-25.44-6.03.796-11.944 2.584-17.916 3.913z"/>
</svg>
