<svg xmlns="http://www.w3.org/2000/svg" width="24" height="24" fill="currentColor" viewBox="0 0 24 24">
  <path d="M20.9 5.8a.47.47 0 00-.1-.3L16.11.16a.48.48 0 00-.22-.14h-.03a.48.48 0 00-.1-.02H4.26a.95.95 0 00-.94.95v22.33c0 .53.42.96.95.96h15.68c.52 0 .95-.43.95-.96V5.86v-.05zM10.72 23.04H6.24v-.7l2.74-3.95v-.03H6.5v-1.08h4.19v.75l-2.69 3.9v.04h2.73v1.07zm2.13 0h-1.31v-5.76h1.3v5.76zm4.74-2.64c-.45.42-1.1.6-1.88.6-.17 0-.32 0-.44-.02v2.06h-1.3v-5.68c.41-.07.97-.12 1.77-.12s1.38.15 1.76.46c.37.29.62.77.62 1.33 0 .57-.2 1.05-.53 1.37zM4.28 16.14V.95h5.68V.8h1.44v.15h3.89v4.86c0 .27.2.48.47.48h4.2v9.85H4.28z"/>
  <path d="M15.8 18.21c-.26 0-.44.03-.53.05v1.7c.11.03.25.04.44.04.69 0 1.12-.35 1.12-.94 0-.53-.37-.85-1.02-.85zM11.4 1.76h1.44v.6H11.4zM9.96.95h1.44v.45H9.96zm0 1.7h1.44v.6H9.96zm1.44.97h1.44v.6H11.4zm0 1.88h1.44v.6H11.4zm-1.44-.96h1.44v.6H9.96zm1.44 2.04c-1.02 0-1.5.83-1.5 1.85l-.35 3.1a1.85 1.85 0 103.7 0l-.34-3.1c0-1.02-.49-1.85-1.5-1.85zm.61 5.98H10.8V9.97h1.22v2.59z"/>
</svg>
