<svg width="1em" height="1em" viewBox="0 0 24 24">
  <title>Feed</title>
  <path d="M12 2c5.514 0 10 4.486 10 10s-4.486 10-10 10S2 17.514 2 12 6.486 2 12 2zm0-2C5.373 0 0 5.373 0 12s5.373 12 12 12 12-5.373 12-12S18.627 0 12 0zm-1.29 14.646c0 .748-.607 1.354-1.354 1.354C8.606 16 8 15.394 8 14.646c0-.747.607-1.353 1.355-1.353s1.355.606 1.355 1.353zM8 9.41v2.003c2.52.025 4.567 2.068 4.592 4.587H14.6c-.026-3.63-2.965-6.566-6.6-6.59zm0-1.405c4.407.02 7.98 3.58 7.993 7.995H18c-.012-5.513-4.48-9.98-10-10v2.005z"/>
</svg>