<svg role="img" width="1em" height="1em" viewBox="0 0 24 24" aria-labelledby="offline-icon">
  <title id="offline-icon">Offline</title>
  <path d="M21.014 2.875l-2.632 2.632C12.596 2.974 5.592 4.042.85 8.785l2.235 2.235c3.477-3.476 8.468-4.495 12.84-3.054l-2.61 2.607c-2.83-.397-5.81.497-7.995 2.682l2.235 2.235c.695-.695 1.49-1.192 2.36-1.49l-6.11 6.084.92.92 17.208-17.21-.92-.92zm-10.9 14.527l-.324.323 2.21 2.21 2.235-2.235c-1.117-1.117-2.88-1.217-4.122-.298zm3.55-3.55c1.018.272 1.986.82 2.78 1.613l2.236-2.235c-.77-.77-1.64-1.39-2.583-1.837l-2.433 2.458zM20.716 6.8l-2.284 2.28c.894.522 1.713 1.167 2.483 1.937L23.15 8.78c-.745-.744-1.564-1.414-2.434-1.985z"/>
</svg>