<?xml version="1.0" encoding="utf-8"?>
<!-- Generator: Adobe Illustrator 16.0.0, SVG Export Plug-In . SVG Version: 6.00 Build 0)  -->
<!DOCTYPE svg PUBLIC "-//W3C//DTD SVG 1.1//EN" "http://www.w3.org/Graphics/SVG/1.1/DTD/svg11.dtd">
<svg version="1.1" id="Layer_1" xmlns="http://www.w3.org/2000/svg" xmlns:xlink="http://www.w3.org/1999/xlink" x="0px" y="0px"
	 width="32px" height="32px" viewBox="0 0 32 32" enable-background="new 0 0 32 32" xml:space="preserve">
<path id="usericon" fill="#fff" d="M31.11,28.336c-0.201-0.133-3.848-2.525-9.273-3.699c1.99-2.521,3.268-5.912,3.811-8.169
	c0.754-3.128,0.461-9.248-2.543-13.062C21.349,1.177,18.892,0,16,0c-2.892,0-5.349,1.178-7.104,3.406
	C5.892,7.219,5.6,13.339,6.353,16.467c0.543,2.257,1.82,5.648,3.811,8.169c-5.425,1.174-9.072,3.566-9.272,3.699
	c-0.733,0.488-1.061,1.4-0.805,2.242C0.341,31.422,1.12,32,2,32h28c0.881,0,1.658-0.578,1.914-1.422
	C32.171,29.736,31.843,28.824,31.11,28.336z M20.267,23.398l-0.326,0.414c-2.385,2.74-5.495,2.74-7.879,0l-0.327-0.414
	c-2.785-3.529-4.167-8.197-3.572-12.65C8.708,6.469,11.16,2,16,2c4.84,0,7.293,4.47,7.838,8.749
	C24.431,15.204,23.054,19.867,20.267,23.398z M2,30c0.138-0.092,3.526-2.314,8.586-3.408l2.484-0.537C13.957,26.637,14.93,27,16,27
	c1.071,0,2.043-0.363,2.93-0.945l2.484,0.537c5.02,1.086,8.396,3.283,8.586,3.408H2z"/>
</svg>
