<svg xmlns="https://www.w3.org/2000/svg" viewBox="0 0 550.801 550.801">
  <path d="M475.095 131.992c-.032-2.526-.833-5.02-2.568-6.993L366.324 3.69c-.02-.034-.053-.045-.084-.076-.633-.707-1.36-1.29-2.14-1.804-.233-.15-.466-.285-.708-.422-.686-.365-1.393-.67-2.13-.89-.2-.06-.38-.14-.58-.193C359.87.115 359.046 0 358.2 0h-261C85.292 0 75.6 9.693 75.6 21.6v507.6c0 11.914 9.692 21.602 21.6 21.602h356.4c11.918 0 21.6-9.688 21.6-21.6v-396c0-.406-.063-.804-.105-1.21zM243.6 523.494H141.75v-15.936l62.398-89.797v-.78h-56.565V392.5h95.05v17.1l-61.037 88.635v.77h62.002v24.49zm48.42 0h-29.743V392.492h29.744v131.002zm107.685-60.054c-10.104 9.524-25.07 13.796-42.566 13.796-3.9 0-7.39-.19-10.11-.58v46.85h-29.35V394.24c9.13-1.56 21.96-2.72 40.032-2.72 18.276 0 31.29 3.49 40.045 10.493 8.354 6.607 13.996 17.486 13.996 30.322 0 12.826-4.28 23.716-12.056 31.103zM97.2 366.752V21.602h129.167v-3.397h32.756V21.6h88.28v110.516c0 5.96 4.83 10.8 10.8 10.8H453.6l.01 223.836H97.2z"/>
  <path d="M359.28 413.87c-6.034 0-10.115.586-12.246 1.17v38.677c2.52.585 5.632.785 9.914.785 15.736 0 25.46-7.98 25.46-21.378 0-12.06-8.363-19.254-23.13-19.254zM259.124 39.918h32.756v13.516h-32.756zM226.368 21.6h32.756v10.126h-32.756zm0 38.546h32.756v13.516h-32.756zm32.756 22.128h32.756v13.518h-32.756zm0 42.71h32.756V138.5h-32.756zm-32.756-21.71h32.756v13.517h-32.756zm32.756 46.263c-23.193 0-34.225 18.792-34.225 41.99l-7.77 70.348c0 23.198 18.79 42.003 41.98 42.003 23.19 0 41.973-18.805 41.973-42.003l-7.74-70.348c.01-23.193-11.034-41.99-34.228-41.99zM273.04 285.43h-27.8v-58.727h27.8v58.728z"/>
</svg>
