<?xml version="1.0" encoding="utf-8"?>
<!-- Generator: Adobe Illustrator 16.0.0, SVG Export Plug-In . SVG Version: 6.00 Build 0)  -->
<!DOCTYPE svg PUBLIC "-//W3C//DTD SVG 1.1//EN" "http://www.w3.org/Graphics/SVG/1.1/DTD/svg11.dtd">
<svg version="1.1" id="Layer_1" xmlns="http://www.w3.org/2000/svg" xmlns:xlink="http://www.w3.org/1999/xlink" x="0px" y="0px"
	 width="32px" height="32px" viewBox="0 0 32 32" enable-background="new 0 0 32 32" xml:space="preserve">
<g id="note">
	<path fill-rule="evenodd" clip-rule="evenodd" fill="#333333" d="M31.414,7.585l-6-6C25.039,1.21,24.529,1,24,1H3
		C1.346,1,0,2.345,0,4v24c0,1.654,1.346,3,3,3h26c1.654,0,3-1.346,3-3V9C32,8.469,31.789,7.96,31.414,7.585z M30,28
		c0,0.553-0.447,1-1,1H3c-0.553,0-1-0.447-1-1V4c0-0.553,0.447-1,1-1h20v4h-0.002c0,1.657,1.344,3,3,3h1H30V28z M26.998,9h-1
		c-1.102,0-2-0.897-2-2H24V3l6,6H26.998z"/>
	<path fill-rule="evenodd" clip-rule="evenodd" fill="#333333" d="M15.5,8h5C20.775,8,21,7.776,21,7.5S20.775,7,20.5,7h-5
		C15.224,7,15,7.223,15,7.5S15.224,8,15.5,8z"/>
	<path fill-rule="evenodd" clip-rule="evenodd" fill="#333333" d="M15.5,11h5c0.275,0,0.5-0.224,0.5-0.5S20.775,10,20.5,10h-5
		c-0.276,0-0.5,0.224-0.5,0.5S15.224,11,15.5,11z"/>
	<path fill-rule="evenodd" clip-rule="evenodd" fill="#333333" d="M15,13.5c0,0.276,0.224,0.5,0.5,0.5h12c0.275,0,0.5-0.224,0.5-0.5
		S27.775,13,27.5,13h-12C15.224,13,15,13.223,15,13.5z"/>
	<path fill-rule="evenodd" clip-rule="evenodd" fill="#333333" d="M27.5,19h-23C4.224,19,4,19.223,4,19.5C4,19.775,4.224,20,4.5,20
		h23c0.275,0,0.5-0.225,0.5-0.5C28,19.223,27.775,19,27.5,19z"/>
	<path fill-rule="evenodd" clip-rule="evenodd" fill="#333333" d="M27.5,22h-23C4.224,22,4,22.223,4,22.5C4,22.775,4.224,23,4.5,23
		h23c0.275,0,0.5-0.225,0.5-0.5C28,22.223,27.775,22,27.5,22z"/>
	<path fill-rule="evenodd" clip-rule="evenodd" fill="#333333" d="M27.5,25h-23C4.224,25,4,25.223,4,25.5C4,25.775,4.224,26,4.5,26
		h23c0.275,0,0.5-0.225,0.5-0.5C28,25.223,27.775,25,27.5,25z"/>
	<path fill-rule="evenodd" clip-rule="evenodd" fill="#333333" d="M27.5,16h-23C4.224,16,4,16.223,4,16.5S4.224,17,4.5,17h23
		c0.275,0,0.5-0.224,0.5-0.5S27.775,16,27.5,16z"/>
	<path fill-rule="evenodd" clip-rule="evenodd" fill="#333333" d="M5,14h7c0.553,0,1-0.447,1-1V7c0-0.553-0.447-1-1-1H5
		C4.447,6,4,6.447,4,7v6C4,13.552,4.447,14,5,14z M6,8h5v4H6V8z"/>
</g>
</svg>
