<svg id="icon-flickr" role="img" xmlns="https://www.w3.org/2000/svg" width="1em" height="1em" viewBox="0 0 24 24">
  <title>Flickr</title>
  <path d="M12 2c5.514 0 10 4.486 10 10s-4.486 10-10 10S2 17.514 2 12 6.486 2 12 2zm0-2C5.373 0 0 5.373 0 12s5.373 12 12 12 12-5.373 12-12S18.627 0 12 0zm2.5 8.5c-.98 0-1.865.404-2.502 1.054-.634-.65-1.52-1.054-2.498-1.054C7.567 8.5 6 10.067 6 12s1.567 3.5 3.5 3.5c.98 0 1.864-.404 2.498-1.054.637.65 1.522 1.054 2.502 1.054 1.933 0 3.5-1.566 3.5-3.5s-1.567-3.5-3.5-3.5zm0 6c-1.378 0-2.5-1.122-2.5-2.5s1.122-2.5 2.5-2.5c1.38 0 2.5 1.122 2.5 2.5s-1.12 2.5-2.5 2.5z"/>
</svg>