<svg id="icon-twitter" role="img" xmlns="https://www.w3.org/2000/svg" width="1em" height="1em" viewBox="0 0 24 24">
  <title>Twitter</title>
  <path d="M12 2c5.514 0 10 4.486 10 10s-4.486 10-10 10S2 17.514 2 12 6.486 2 12 2zm0-2C5.373 0 0 5.373 0 12s5.373 12 12 12 12-5.373 12-12S18.627 0 12 0zm6.5 8.778c-.44.196-.916.328-1.414.388.51-.305.898-.787 1.083-1.362-.477.282-1.004.487-1.565.597-.448-.478-1.09-.777-1.796-.777-1.59 0-2.76 1.483-2.4 3.023-2.045-.103-3.86-1.083-5.074-2.572-.645 1.106-.334 2.554.762 3.287-.403-.012-.782-.123-1.114-.307-.027 1.14.79 2.207 1.975 2.445-.347.094-.727.116-1.113.042.313.978 1.224 1.69 2.3 1.71-1.037.81-2.34 1.174-3.647 1.02 1.09.7 2.383 1.106 3.773 1.106 4.572 0 7.154-3.86 6.998-7.324.483-.346.9-.78 1.23-1.274z"/>
</svg>