<svg xmlns="http://www.w3.org/2000/svg" viewBox="0 0 50 50" width="1em" height="1em">
  <title>Twitter</title>
  <path d="M49.2 9.807c-1.816.825-3.632 1.32-5.777 1.65 1.98-1.32 3.63-3.136 4.456-5.447-1.98 1.156-4.127 1.98-6.273 2.476-1.816-1.98-4.457-3.136-7.263-3.136-5.447 0-10.07 4.457-10.07 10.07 0 .825.166 1.485.33 2.31-8.253-.33-15.68-4.457-20.633-10.4-.824 1.156-1.32 2.807-1.32 4.623 0 3.466 1.816 6.603 4.458 8.253-1.65 0-3.137-.495-4.457-1.32v.165c0 4.788 3.467 8.914 8.09 9.74-.826.165-1.652.33-2.642.33-.66 0-1.32 0-1.816-.165 1.32 3.96 4.952 6.933 9.41 6.933-3.467 2.64-7.76 4.29-12.38 4.29-.826 0-1.652 0-2.312-.164C4.962 43.15 10.244 44.8 15.856 44.8c18.323 0 28.392-15.185 28.392-28.39v-1.32c1.98-1.487 3.63-3.137 4.952-5.283z"/>
  </svg>
