<svg xmlns="https://www.w3.org/2000/svg" viewBox="0 0 32 32" width="1em" height="1em">
  <title>amour</title>
  <path d="M28.95 5.078c-1.292-1.565-3.105-2.36-5.466-2.484-2.41 0-4.198 1.043-5.465 2.484-1.27 1.44-1.94 2.286-1.99 2.485-.05-.2-.7-1.044-1.99-2.485-1.29-1.44-2.91-2.484-5.47-2.484-2.36.124-4.198.944-5.466 2.484-1.29 1.516-1.937 3.18-1.987 4.97 0 1.29.224 3.775 1.665 6.632 1.44 2.857 5.81 7.304 13.24 13.242 7.403-5.938 11.85-10.36 13.266-13.242 1.416-2.882 1.64-5.39 1.64-6.633-.05-1.79-.696-3.453-1.988-5.02v.05z"/>
</svg>
