<svg xmlns="http://www.w3.org/2000/svg" width="1em" height="1em" viewBox="0 0 32 32">
  <g fill-rule="evenodd" clip-rule="evenodd">
    <path d="M16 7c-5.963 0-11 3.206-11 7 0 .276.224.5.5.5s.5-.224.5-.5c0-3.196 4.673-6 10-6 .275 0 .5-.224.5-.5S16.276 7 16 7z"/>
    <path d="M16 2C7.163 2 0 7.373 0 14c0 4.127 2.78 7.766 7.008 9.926 0 .027-.008.045-.008.074 0 1.793-1.34 3.723-1.928 4.736h.002c-.047.11-.074.23-.074.358 0 .5.405.906.906.906.094 0 .26-.025.255-.014 3.126-.512 6.07-3.383 6.754-4.215 1 .148 2.03.23 3.086.23 8.835 0 16-5.373 16-12S24.836 2 16 2zm0 22c-.917 0-1.858-.07-2.796-.207-.097-.016-.194-.02-.29-.02-.594 0-1.163.263-1.546.73-.428.52-1.646 1.683-3.085 2.538.39-.894.695-1.897.716-2.93.005-.065.008-.13.008-.185 0-.752-.42-1.44-1.09-1.78C4.212 20.25 2 17.206 2 14 2 8.486 8.28 4 16 4c7.718 0 14 4.486 14 10s-6.28 10-14 10z"/>
  </g>
</svg>