<svg xmlns="http://www.w3.org/2000/svg" width="1em" height="1em" viewBox="0 0 50 50">
  <title>Github</title>
  <path d="M25 1.5c-13.28 0-24 10.72-24 24 0 10.56 6.88 19.52 16.48 22.72 1.28.16 1.6-.48 1.6-1.12v-4.16c-6.72 1.44-8.16-3.2-8.16-3.2-1.12-2.72-2.72-3.52-2.72-3.52-2.24-1.44.16-1.44.16-1.44 2.4.16 3.68 2.4 3.68 2.4 2.08 3.68 5.6 2.56 7.04 1.92.16-1.6.8-2.56 1.6-3.2C15.4 35.26 9.8 33.18 9.8 24.06c0-2.56.96-4.8 2.4-6.4-.32-.64-1.12-3.04.16-6.4 0 0 2.08-.64 6.56 2.4 1.92-.48 4-.8 6.08-.8s4.16.32 6.08.8c4.64-3.04 6.56-2.4 6.56-2.4 1.28 3.36.48 5.76.16 6.4 1.6 1.6 2.4 3.84 2.4 6.4 0 9.28-5.6 11.2-10.88 11.84.8.8 1.6 2.24 1.6 4.48v6.56c0 .64.48 1.44 1.6 1.12 9.6-3.2 16.32-12.16 16.32-22.72C49 12.22 38.28 1.5 25 1.5z"/>
</svg>
